<?xml version="1.0" encoding="utf-8"?>
<!-- Generator: Adobe Illustrator 17.0.0, SVG Export Plug-In . SVG Version: 6.00 Build 0)  -->
<!DOCTYPE svg PUBLIC "-//W3C//DTD SVG 1.1//EN" "http://www.w3.org/Graphics/SVG/1.1/DTD/svg11.dtd" [
	<!ENTITY ns_flows "http://ns.adobe.com/Flows/1.0/">
	<!ENTITY ns_extend "http://ns.adobe.com/Extensibility/1.0/">
	<!ENTITY ns_ai "http://ns.adobe.com/AdobeIllustrator/10.0/">
	<!ENTITY ns_graphs "http://ns.adobe.com/Graphs/1.0/">
]>
<svg version="1.1" id="Layer_1" xmlns:x="&ns_extend;" xmlns:i="&ns_ai;" xmlns:graph="&ns_graphs;"
	 xmlns="http://www.w3.org/2000/svg" xmlns:xlink="http://www.w3.org/1999/xlink" xmlns:a="http://ns.adobe.com/AdobeSVGViewerExtensions/3.0/"
	 x="0px" y="0px" width="497px" height="290px" viewBox="0 0 497 290" style="enable-background:new 0 0 497 290;"
	 xml:space="preserve">
<g>
	<path style="fill:#1A1A1A;" d="M38.308,168.589c-6.371,0-12.345-2.488-16.924-7.068c-4.48-4.48-6.969-10.453-6.969-16.824
		s2.489-12.345,6.969-16.924c4.579-4.48,10.552-6.969,16.924-6.969s12.345,2.489,16.924,6.969c4.48,4.58,6.869,10.553,6.869,16.924
		s-2.389,12.345-6.869,16.824C50.652,166.101,44.679,168.589,38.308,168.589z M38.308,160.028c8.462,0,15.232-6.869,15.232-15.331
		c0-8.462-6.77-15.331-15.232-15.331c-8.462,0-15.331,6.869-15.331,15.331C22.976,153.159,29.846,160.028,38.308,160.028z"/>
	<path style="fill:#1A1A1A;" d="M216.318,168.589c-6.371,0-12.345-2.488-16.924-7.068c-4.48-4.48-6.969-10.453-6.969-16.824
		s2.489-12.345,6.969-16.924c4.579-4.48,10.552-6.969,16.924-6.969s12.345,2.489,16.924,6.969c4.48,4.58,6.869,10.553,6.869,16.924
		s-2.389,12.345-6.869,16.824C228.662,166.101,222.689,168.589,216.318,168.589z M216.318,160.028
		c8.462,0,15.232-6.869,15.232-15.331c0-8.462-6.77-15.331-15.232-15.331c-8.462,0-15.331,6.869-15.331,15.331
		C200.986,153.159,207.856,160.028,216.318,160.028z"/>
	<path style="fill:#1A1A1A;" d="M71.626,147.923V121.84h8.561v26.083c0,6.671,5.576,12.145,12.544,12.145
		c6.869,0,12.544-5.475,12.544-12.145V121.84h8.561v26.083c0,5.575-2.289,10.752-6.272,14.635
		c-3.982,3.882-9.258,5.874-14.833,5.874c-5.675,0-10.951-1.992-14.934-5.874S71.626,153.498,71.626,147.923z"/>
	<path style="fill:#1A1A1A;" d="M172.963,126.519c2.887-3.186,11.35-5.674,16.626-5.674l-2.091,8.561
		c-7.965,0-14.535,6.073-14.535,13.739v24.291h-8.561V121.84h8.561V126.519z"/>
	<path style="fill:#1A1A1A;" d="M288.638,121.84l-18.518,45.596h-9.258l-18.518-45.596h9.259l13.938,34.247l13.838-34.247H288.638z"
		/>
	<path style="fill:#1A1A1A;" d="M328.453,164.291c-5.259,1.873-9.656,4.14-15.331,4.14c-6.371,0-12.345-2.39-16.824-6.87
		c-4.58-4.579-6.968-10.552-6.968-16.924s2.388-12.345,6.968-16.924c4.48-4.48,10.453-6.869,16.824-6.869
		c5.675,0,11.124,2.602,15.331,6.272c1.18,1.029,4.636,4.21,4.636,4.21s2.859-3.318,3.927-4.309
		c3.43-3.184,8.163-5.476,12.941-5.476c5.973,0,11.448,2.489,15.531,6.869c2.787,3.086,4.778,6.87,5.673,11.05
		c0.398,1.792,0.598,3.584,0.598,5.376c0,0.697-0.1,1.294-0.1,1.891h-34.644v2.788c1.792,6.172,6.868,10.652,12.743,10.751h0.198
		h0.198c3.983-0.199,7.865-1.892,10.753-4.778l7.068,4.281c-1.693,1.991-3.683,3.683-5.973,5.077
		c-3.485,2.091-7.566,3.186-11.946,3.385h-0.1c-4.778,0-8.519-2.027-12.838-3.83C335.12,163.568,330.494,163.564,328.453,164.291z
		 M328.354,146.828c-0.1-0.597-0.1-1.294-0.1-1.991c0-0.697,0-1.493,0.1-2.29c-0.996-7.466-7.466-13.34-15.233-13.34
		c-8.362,0-15.231,6.969-15.231,15.431c0,8.462,6.87,15.43,15.231,15.43C320.888,160.068,327.259,154.294,328.354,146.828z
		 M337.214,139.561H362.7l-0.1-0.199c-1.99-5.874-7.068-9.856-12.643-9.856c-5.475,0-10.553,3.982-12.643,9.856L337.214,139.561z"/>
	<path style="fill:#1A1A1A;" d="M388.376,126.519c2.887-3.186,11.35-5.674,16.626-5.674l-2.091,8.561
		c-7.965,0-14.535,6.073-14.535,13.739v24.291h-8.561V121.84h8.561V126.519z"/>
	<path style="fill:#1A1A1A;" d="M417.043,152.304v-22.3h-6.77v-8.164h6.77v-17.621h8.563v17.621h14.036v8.164h-14.036v22.101
		c0,3.683,3.185,7.168,6.77,7.168h7.665l2.19,8.163h-10.055C423.813,167.436,417.043,160.766,417.043,152.304z"/>
	<g>
		<path style="fill:#1A1A1A;" d="M346.189,8.593c-62.815,0-115.845,42.669-131.621,100.549c0.544-0.043,1.087-0.064,1.642-0.064
			c2.388,0,4.722,0.352,6.939,1.034c15.221-53.606,64.617-92.992,123.04-92.992c70.511,0,127.869,57.368,127.869,127.879
			S416.7,272.879,346.189,272.879c-58.626,0-108.16-39.652-123.179-93.546c-1.354,0.405-2.739,0.682-4.157,0.831
			c-0.874,0.096-1.748,0.149-2.644,0.149c-0.608,0-1.205-0.021-1.801-0.064c15.563,58.189,68.742,101.157,131.781,101.157
			c75.212,0,136.396-61.195,136.396-136.407S421.401,8.593,346.189,8.593z"/>
	</g>
	<path style="fill:#1A1A1A;" d="M131.054,152.304v-22.3h-6.77v-8.164h6.77v-17.621h8.563v17.621h14.036v8.164h-14.036v22.101
		c0,3.683,3.185,7.168,6.77,7.168h7.665l2.19,8.163h-10.055C137.824,167.436,131.054,160.766,131.054,152.304z"/>
</g>
</svg>
